<svg width="68" height="49" viewBox="0 0 68 49" fill="none" xmlns="http://www.w3.org/2000/svg">
<path d="M50.875 48.6248C50.6315 48.6253 50.3945 48.5463 50.2 48.3998C36.3828 38.0374 37.3289 13.6092 37.375 12.5742C37.388 12.2847 37.5123 12.0114 37.7219 11.8112C37.9315 11.6111 38.2102 11.4995 38.5 11.4998H42.5342L34 2.9656L25.4658 11.4998H29.5C29.7898 11.4995 30.0685 11.6111 30.2781 11.8112C30.4877 12.0114 30.612 12.2847 30.625 12.5742C30.6723 13.6092 31.6184 38.0374 17.8 48.3998C17.6818 48.4884 17.5473 48.5529 17.4042 48.5896C17.2611 48.6263 17.1122 48.6344 16.9659 48.6135C16.8196 48.5926 16.6789 48.5431 16.5518 48.4678C16.4247 48.3926 16.3136 48.293 16.225 48.1748C16.1364 48.0566 16.0719 47.9221 16.0352 47.779C15.9985 47.6359 15.9904 47.487 16.0113 47.3407C16.0535 47.0453 16.2113 46.7788 16.45 46.5998C27.7596 38.1173 28.411 18.5468 28.3953 13.7498H22.75C22.5275 13.7498 22.3101 13.6838 22.1251 13.5601C21.9401 13.4365 21.796 13.2608 21.7109 13.0553C21.6257 12.8498 21.6035 12.6236 21.6468 12.4054C21.6902 12.1872 21.7973 11.9868 21.9546 11.8294L33.2046 0.5794C33.4156 0.3685 33.7017 0.25 34 0.25C34.2983 0.25 34.5844 0.3685 34.7954 0.5794L46.0454 11.8294C46.2027 11.9868 46.3098 12.1872 46.3532 12.4054C46.3965 12.6236 46.3743 12.8498 46.2891 13.0553C46.204 13.2608 46.0599 13.4365 45.8749 13.5601C45.6899 13.6838 45.4725 13.7498 45.25 13.7498H39.6059C39.5924 18.5491 40.2527 38.1263 51.55 46.5998C51.7389 46.7415 51.8784 46.939 51.9488 47.1644C52.0192 47.3897 52.0169 47.6316 51.9423 47.8556C51.8676 48.0796 51.7243 48.2744 51.5328 48.4125C51.3412 48.5505 51.1111 48.6248 50.875 48.6248Z" fill="white"/>
<path d="M66.6248 48.6248C66.3814 48.6253 66.1444 48.5463 65.9498 48.3998C52.1326 38.0374 53.0787 13.6092 53.1248 12.5742C53.1379 12.2847 53.2621 12.0114 53.4717 11.8112C53.6813 11.6111 53.96 11.4995 54.2498 11.4998H58.2841L49.7498 2.9656L46.0452 6.6702C45.833 6.8751 45.5489 6.9885 45.2539 6.9859C44.9589 6.9834 44.6768 6.8651 44.4682 6.6565C44.2596 6.4479 44.1413 6.1657 44.1387 5.8708C44.1362 5.5758 44.2495 5.2916 44.4545 5.0794L48.9545 0.5794C49.1654 0.3685 49.4515 0.25 49.7498 0.25C50.0482 0.25 50.3343 0.3685 50.5452 0.5794L61.7952 11.8294C61.9525 11.9868 62.0596 12.1872 62.103 12.4054C62.1464 12.6236 62.1241 12.8498 62.039 13.0553C61.9539 13.2608 61.8097 13.4365 61.6247 13.5601C61.4398 13.6838 61.2223 13.7498 60.9998 13.7498H55.3557C55.3422 18.5491 56.0026 38.1263 67.2998 46.5998C67.4887 46.7415 67.6283 46.939 67.6987 47.1644C67.7691 47.3897 67.7668 47.6316 67.6921 47.8556C67.6174 48.0796 67.4742 48.2744 67.2826 48.4125C67.0911 48.5505 66.861 48.6248 66.6248 48.6248Z" fill="white"/>
<path d="M1.375 48.6248C1.13888 48.6248 0.908752 48.5505 0.717202 48.4125C0.525652 48.2744 0.382402 48.0796 0.307732 47.8556C0.233062 47.6316 0.230772 47.3897 0.301172 47.1644C0.371572 46.939 0.511112 46.7415 0.700002 46.5998C12.0096 38.1173 12.661 18.5468 12.6452 13.7498H7C6.77753 13.7498 6.56007 13.6838 6.37511 13.5601C6.19015 13.4365 6.04599 13.2608 5.96086 13.0553C5.87573 12.8498 5.85345 12.6236 5.89684 12.4054C5.94023 12.1872 6.04734 11.9868 6.20462 11.8294L17.4546 0.5794C17.6656 0.3685 17.9517 0.25 18.25 0.25C18.5483 0.25 18.8344 0.3685 19.0454 0.5794L23.5454 5.0794C23.7503 5.2916 23.8637 5.5758 23.8611 5.8708C23.8586 6.1657 23.7403 6.4479 23.5317 6.6565C23.3231 6.8651 23.0409 6.9834 22.7459 6.9859C22.451 6.9885 22.1668 6.8751 21.9546 6.6702L18.25 2.9656L9.7157 11.4998H13.75C14.0398 11.4995 14.3185 11.6111 14.5281 11.8112C14.7377 12.0114 14.862 12.2847 14.875 12.5742C14.9222 13.6092 15.8684 38.0374 2.05 48.3998C1.8555 48.5463 1.6185 48.6253 1.375 48.6248Z" fill="white"/>
</svg>
