<svg width="88" height="88" viewBox="0 0 88 88" fill="none" xmlns="http://www.w3.org/2000/svg">
<g clip-path="url(#clip0_315_1621)">
<rect x="0.460938" width="87.5156" height="87.5156" rx="17.5031" fill="white"/>
<path fill-rule="evenodd" clip-rule="evenodd" d="M87.9764 0H0.460815V87.5156H87.9764V0ZM20.5895 23.5539C20.5895 21.6632 22.1724 20.1285 24.1236 20.1285H64.8745C66.8265 20.1285 68.4087 21.6632 68.4087 23.5539V64.5228C68.4087 66.4141 66.8265 67.9476 64.8745 67.9476H24.1236C22.1726 67.9476 20.5895 66.4142 20.5895 64.5233V23.5539ZM35.1209 60.1469V38.6186H27.9652V60.1469H35.1209ZM31.5446 35.6798C34.0394 35.6798 35.5926 34.0267 35.5926 31.9607C35.5459 29.8477 34.0394 28.2407 31.592 28.2407C29.143 28.2407 27.5434 29.8477 27.5434 31.9605C27.5434 34.0265 29.0961 35.6796 31.4977 35.6796L31.5446 35.6798ZM39.0817 60.1469H46.2368V48.1258C46.2368 47.4833 46.2835 46.839 46.4725 46.3801C46.9896 45.094 48.1669 43.7627 50.1441 43.7627C52.7327 43.7627 53.7689 45.7367 53.7689 48.6311V60.1469H60.9238V47.8032C60.9238 41.1909 57.3942 38.1139 52.6864 38.1139C48.8909 38.1139 47.1885 40.2 46.2374 41.6666V38.6193H39.082C39.1754 40.639 39.0817 60.1469 39.0817 60.1469Z" fill="#006699"/>
</g>
<defs>
<clipPath id="clip0_315_1621">
<rect x="0.460938" width="87.5156" height="87.5156" rx="17.5031" fill="white"/>
</clipPath>
</defs>
</svg>
