<svg width="48" height="36" viewBox="0 0 48 36" fill="none" xmlns="http://www.w3.org/2000/svg">
<path fill-rule="evenodd" clip-rule="evenodd" d="M19.0678 25.3736H24L16.036 15.9075H11.1038L14.1314 19.5052C13.3928 19.7433 12.6068 19.8756 11.7949 19.8756C7.56235 19.8756 4.12021 16.3661 4.12021 12.0409C4.12021 7.71568 7.56235 4.20174 11.7949 4.20174C16.0274 4.20174 19.4695 7.72009 19.4695 12.0409C19.4695 13.6501 18.9901 15.1448 18.1738 16.3881H22.7907C23.3047 15.039 23.5854 13.5708 23.5854 12.0409C23.5854 5.40097 18.2904 0 11.7905 0C5.29062 0 0 5.40097 0 12.0409C0 18.6808 5.29062 24.0773 11.7905 24.0773C13.6433 24.0773 15.3925 23.6408 16.9516 22.8604L19.0678 25.3736ZM42.9828 23.6031H48.0011L30.3577 0.589844H25.3394L34.0796 11.9832L25.1719 23.6031H30.1902L36.5843 15.2601L42.9828 23.6031ZM37.1576 7.96491H42.1803L47.8336 0.589844H42.8153L37.1576 7.96491ZM12.6034 35.0225H8.00391V28.4139H9.20812V33.8788H12.6034V35.0182V35.0225ZM18.6389 35.0227H19.8605L17.239 28.4141H15.6566L13.0352 35.0227H14.2611L14.8523 33.537H18.0476L18.6389 35.0227ZM16.4478 29.514L17.6086 32.4327H17.6042H15.2871L16.4478 29.514ZM26.6935 33.1338C26.6935 34.1768 25.8545 35.0225 24.8198 35.0225H20.8594V28.4139H24.6416C25.6241 28.4139 26.424 29.2159 26.424 30.2107C26.424 30.8987 25.9197 31.3764 25.6501 31.5473C26.011 31.7182 26.6935 32.2397 26.6935 33.1338ZM24.4068 29.5271H22.0332V31.0872H24.4068C24.8372 31.0872 25.185 30.7497 25.185 30.3159C25.185 29.882 24.8372 29.5314 24.4068 29.5314V29.5271ZM25.4806 33.0286C25.4806 32.5421 25.0893 32.1521 24.6068 32.1521H22.0332V33.9138H24.6068C25.0893 33.9138 25.4806 33.5194 25.4806 33.033V33.0286ZM28.2712 33.6172C27.8365 33.6172 27.4844 33.9722 27.4844 34.4104C27.4844 34.8486 27.8365 35.2036 28.2712 35.2036C28.706 35.2036 29.0581 34.8486 29.0581 34.4104C29.0581 33.9722 28.706 33.6172 28.2712 33.6172ZM30.3633 28.4141H31.5675V35.0227H30.3633V28.4141ZM36.3658 35.1975C38.27 35.1975 39.8176 33.6374 39.8176 31.7179C39.8176 29.7984 38.27 28.2383 36.3658 28.2383C34.4617 28.2383 32.9141 29.7984 32.9141 31.7179C32.9141 33.6374 34.4617 35.1975 36.3658 35.1975ZM36.3658 29.4522C37.6048 29.4522 38.6134 30.4689 38.6134 31.7179C38.6134 32.9669 37.6048 33.9836 36.3658 33.9836C35.1269 33.9836 34.1183 32.9669 34.1183 31.7179C34.1183 30.4689 35.1269 29.4522 36.3658 29.4522Z" fill="#A5FFED"/>
</svg>
