<svg width="145" height="63" viewBox="0 0 145 63" fill="none" xmlns="http://www.w3.org/2000/svg">
<path d="M138.16 3.16016H144.94L143.62 9.64016H136.84L138.16 3.16016ZM135.7 14.9802H142.54L136 46.4802C135.76 47.6002 135.52 48.6602 135.28 49.6602C135.04 50.6602 134.7 51.6402 134.26 52.6002C133.46 54.6802 132.4 56.1402 131.08 56.9802C129.76 57.8602 128 58.3002 125.8 58.3002C124.4 58.3002 123.14 58.1802 122.02 57.9402L123.22 52.4802C123.46 52.6802 123.78 52.8002 124.18 52.8402C124.58 52.8802 125.04 52.9002 125.56 52.9002C126.24 52.9002 126.78 52.7202 127.18 52.3602C127.58 52.0002 127.9 51.5402 128.14 50.9802C128.38 50.4602 128.56 49.8602 128.68 49.1802C128.8 48.5002 128.92 47.8602 129.04 47.2602L135.7 14.9802Z" fill="url(#paint0_linear_612_1199)"/>
<path d="M60 62.7144H47.6696L42.379 56.5029C38.4812 58.4317 34.1083 59.5106 29.4763 59.5106C13.2266 59.5106 0 46.1722 0 29.7607C0 13.3493 13.2266 0 29.4763 0C45.7261 0 58.9635 13.3493 58.9635 29.7607C58.9635 33.5421 58.2616 37.1709 56.9768 40.5055H45.4346C47.4753 37.4325 48.6737 33.7383 48.6737 29.7607C48.6737 19.0813 40.0684 10.3852 29.4871 10.3852C18.9059 10.3852 10.3005 19.0704 10.3005 29.7607C10.3005 40.451 18.9059 49.1254 29.4871 49.1254C31.517 49.1254 33.4821 48.7984 35.3284 48.21L27.7596 39.3177H40.09L60 62.7144Z" fill="url(#paint1_linear_612_1199)"/>
<path d="M120.001 58.3385H107.455L91.4588 37.7175L75.4735 58.3385H62.9277L85.197 29.6184L63.3467 1.45801H75.8924L120.001 58.3385ZM105.449 19.6865H92.892L107.036 1.45801H119.582L105.449 19.6865Z" fill="url(#paint2_linear_612_1199)"/>
<defs>
<linearGradient id="paint0_linear_612_1199" x1="143.282" y1="5.50016" x2="160.287" y2="41.5542" gradientUnits="userSpaceOnUse">
<stop stop-color="#A1FBEB"/>
<stop offset="1" stop-color="#58A1B7"/>
</linearGradient>
<linearGradient id="paint1_linear_612_1199" x1="30" y1="0" x2="30" y2="62.7144" gradientUnits="userSpaceOnUse">
<stop stop-color="#A5FFED"/>
<stop offset="1" stop-color="#4FC3E8" stop-opacity="0.63"/>
</linearGradient>
<linearGradient id="paint2_linear_612_1199" x1="91.4643" y1="1.45801" x2="91.4643" y2="58.3385" gradientUnits="userSpaceOnUse">
<stop stop-color="#A5FFED"/>
<stop offset="1" stop-color="#4FC3E8" stop-opacity="0.63"/>
</linearGradient>
</defs>
</svg>
