<svg width="172" height="63" viewBox="0 0 172 63" fill="none" xmlns="http://www.w3.org/2000/svg">
<path d="M128.061 26.9796H134.541L133.641 31.3596L133.761 31.4796C135.041 29.7996 136.581 28.4996 138.381 27.5796C140.221 26.6196 142.221 26.1396 144.381 26.1396C146.301 26.1396 147.981 26.5596 149.421 27.3996C150.861 28.1996 151.801 29.6196 152.241 31.6596C153.641 30.0596 155.201 28.7396 156.921 27.6996C158.641 26.6596 160.581 26.1396 162.741 26.1396C165.741 26.1396 167.961 26.8796 169.401 28.3596C170.841 29.8396 171.561 31.8396 171.561 34.3596C171.561 34.9196 171.501 35.5596 171.381 36.2796C171.301 36.9996 171.201 37.6396 171.081 38.1996L167.121 57.9996H160.281L164.121 39.6396C164.201 39.2796 164.301 38.7796 164.421 38.1396C164.581 37.4596 164.681 36.7396 164.721 35.9796C164.721 35.4596 164.661 34.9396 164.541 34.4196C164.461 33.8596 164.261 33.3796 163.941 32.9796C163.621 32.5396 163.181 32.1996 162.621 31.9596C162.061 31.6796 161.341 31.5396 160.461 31.5396C159.141 31.5396 157.961 31.8197 156.921 32.3797C155.921 32.8997 155.041 33.5796 154.281 34.4196C153.561 35.2196 152.961 36.1196 152.481 37.1196C152.041 38.0796 151.741 38.9997 151.581 39.8797L147.801 57.9996H140.961L144.501 40.9596C144.661 40.1596 144.841 39.2596 145.041 38.2596C145.281 37.2596 145.401 36.2997 145.401 35.3797C145.401 34.3397 145.121 33.4396 144.561 32.6796C144.041 31.9196 143.061 31.5396 141.621 31.5396C140.301 31.5396 139.161 31.7796 138.201 32.2596C137.281 32.7396 136.481 33.3196 135.801 33.9996C135.121 34.6796 134.421 35.5596 133.701 36.6396C132.981 37.6796 132.481 38.8197 132.201 40.0597L128.481 57.9996H121.641L128.061 26.9796Z" fill="url(#paint0_linear_612_1169)"/>
<path d="M60 62.7144H47.6696L42.379 56.5029C38.4812 58.4317 34.1083 59.5106 29.4763 59.5106C13.2266 59.5106 0 46.1722 0 29.7607C0 13.3493 13.2266 0 29.4763 0C45.7261 0 58.9635 13.3493 58.9635 29.7607C58.9635 33.5421 58.2616 37.1709 56.9768 40.5055H45.4346C47.4753 37.4325 48.6737 33.7383 48.6737 29.7607C48.6737 19.0813 40.0684 10.3852 29.4871 10.3852C18.9059 10.3852 10.3005 19.0704 10.3005 29.7607C10.3005 40.451 18.9059 49.1254 29.4871 49.1254C31.517 49.1254 33.4821 48.7984 35.3284 48.21L27.7596 39.3177H40.09L60 62.7144Z" fill="url(#paint1_linear_612_1169)"/>
<path d="M120.001 58.3395H107.455L91.4587 37.7185L75.4734 58.3395H62.9277L85.1969 29.6194L63.3466 1.45898H75.8923L120.001 58.3395ZM105.449 19.6875H92.8919L107.036 1.45898H119.582L105.449 19.6875Z" fill="url(#paint2_linear_612_1169)"/>
<defs>
<linearGradient id="paint0_linear_612_1169" x1="145.816" y1="17.4996" x2="156.659" y2="58.7221" gradientUnits="userSpaceOnUse">
<stop stop-color="#35F5D1"/>
<stop offset="1" stop-color="#3C994E"/>
</linearGradient>
<linearGradient id="paint1_linear_612_1169" x1="30" y1="0" x2="30" y2="62.7144" gradientUnits="userSpaceOnUse">
<stop stop-color="#34F7D4"/>
<stop offset="1" stop-color="#3C8E3F"/>
</linearGradient>
<linearGradient id="paint2_linear_612_1169" x1="91.4642" y1="1.45898" x2="91.4642" y2="58.3395" gradientUnits="userSpaceOnUse">
<stop stop-color="#34F7D4"/>
<stop offset="1" stop-color="#3C8E3F"/>
</linearGradient>
</defs>
</svg>
