<svg width="52" height="68" viewBox="0 0 52 68" fill="none" xmlns="http://www.w3.org/2000/svg">
<path d="M26 27.25C24.9436 27.25 0.125 27.1859 0.125 21.625C0.125 17.8866 11.3592 16.6424 18.0564 16.2351C18.3537 16.2196 18.6453 16.3213 18.8684 16.5184C19.0916 16.7155 19.2286 16.9923 19.25 17.2892C19.2682 17.587 19.1673 17.8798 18.9696 18.1032C18.772 18.3266 18.4936 18.4624 18.1959 18.4806C7.5084 19.132 3.068 20.8206 2.4189 21.6306C3.3852 22.8884 11.7564 25.0056 26.0022 25.0056C40.2481 25.0056 48.6147 22.8895 49.5856 21.6306C48.9365 20.8251 44.4939 19.1365 33.8086 18.4806C33.5103 18.4624 33.2313 18.3264 33.0332 18.1026C32.8351 17.8787 32.734 17.5854 32.7523 17.287C32.7705 16.9886 32.9064 16.7097 33.1303 16.5116C33.3541 16.3135 33.6475 16.2124 33.9459 16.2306C40.6408 16.6424 51.875 17.8866 51.875 21.625C51.875 27.1859 27.0564 27.25 26 27.25Z" fill="#A5FFED"/>
<path d="M21.5 67.75C21.2016 67.75 20.9155 67.6315 20.7045 67.4205C20.4935 67.2095 20.375 66.9234 20.375 66.625V52.5625C11.7823 48.0119 5.9199 44.8405 2.9454 43.1316C2.0892 42.6377 1.3779 41.9273 0.8829 41.0717C0.3878 40.2162 0.1265 39.2455 0.125 38.257V21.625C0.125 21.3266 0.2435 21.0405 0.4545 20.8295C0.6655 20.6185 0.9516 20.5 1.25 20.5C1.5484 20.5 1.8345 20.6185 2.0455 20.8295C2.2565 21.0405 2.375 21.3266 2.375 21.625V38.257C2.3752 38.8497 2.5312 39.4319 2.8274 39.9453C3.1236 40.4587 3.5495 40.8852 4.0625 41.182C7.0831 42.9167 13.1278 46.1837 22.0231 50.893C22.2045 50.9883 22.3564 51.1312 22.4625 51.3065C22.5685 51.4817 22.6247 51.6826 22.625 51.8875V64.6L29.375 60.3813V51.7975C29.375 51.5954 29.4294 51.397 29.5325 51.2232C29.6357 51.0494 29.7837 50.9066 29.9611 50.8098L47.8677 41.0414C48.3996 40.7509 48.8435 40.3225 49.1527 39.8013C49.4619 39.2801 49.625 38.6853 49.625 38.0793V21.625C49.625 21.3266 49.7435 21.0405 49.9545 20.8295C50.1655 20.6185 50.4516 20.5 50.75 20.5C51.0484 20.5 51.3345 20.6185 51.5455 20.8295C51.7565 21.0405 51.875 21.3266 51.875 21.625V38.0793C51.8755 39.089 51.6042 40.0804 51.0896 40.9492C50.5749 41.8179 49.8359 42.5322 48.95 43.0169L31.625 52.4658V61C31.625 61.1908 31.5765 61.3785 31.484 61.5454C31.3915 61.7122 31.2581 61.8529 31.0962 61.954L22.0963 67.579C21.9175 67.6907 21.7108 67.75 21.5 67.75Z" fill="#A5FFED"/>
<path d="M26 22.75C24.8875 22.75 23.7999 22.4201 22.8749 21.802C21.9499 21.1839 21.2289 20.3054 20.8032 19.2776C20.3774 18.2498 20.266 17.1188 20.4831 16.0276C20.7001 14.9365 21.2359 13.9342 22.0225 13.1475C22.8092 12.3609 23.8115 11.8251 24.9026 11.6081C25.9938 11.391 27.1248 11.5024 28.1526 11.9282C29.1804 12.3539 30.0589 13.0749 30.677 13.9999C31.2951 14.9249 31.625 16.0125 31.625 17.125C31.6232 18.6163 31.03 20.046 29.9755 21.1005C28.921 22.155 27.4913 22.7482 26 22.75ZM26 13.75C25.3325 13.75 24.68 13.9479 24.125 14.3188C23.5699 14.6896 23.1374 15.2167 22.8819 15.8334C22.6265 16.4501 22.5596 17.1287 22.6899 17.7834C22.8201 18.4381 23.1415 19.0395 23.6135 19.5115C24.0855 19.9835 24.6869 20.3049 25.3416 20.4352C25.9963 20.5654 26.6749 20.4985 27.2916 20.2431C27.9083 19.9877 28.4354 19.5551 28.8062 19.0001C29.1771 18.445 29.375 17.7925 29.375 17.125C29.375 16.2299 29.0194 15.3715 28.3865 14.7385C27.7536 14.1056 26.8951 13.75 26 13.75Z" fill="#A5FFED"/>
<path d="M9.12502 14.875C8.01252 14.875 6.92492 14.5451 5.99992 13.927C5.07492 13.3089 4.35392 12.4304 3.92822 11.4026C3.50242 10.3748 3.39102 9.2438 3.60812 8.1526C3.82512 7.06148 4.36092 6.0592 5.14752 5.27253C5.93422 4.48586 6.93652 3.95013 8.02762 3.73309C9.11882 3.51604 10.2498 3.62744 11.2776 4.05318C12.3054 4.47892 13.1839 5.19989 13.802 6.12492C14.4201 7.04995 14.75 8.1375 14.75 9.25C14.7482 10.7413 14.155 12.171 13.1005 13.2255C12.046 14.28 10.6163 14.8732 9.12502 14.875ZM9.12502 5.875C8.45752 5.875 7.80502 6.07294 7.25002 6.44379C6.69492 6.81464 6.26242 7.34175 6.00692 7.95845C5.75152 8.5751 5.68462 9.2537 5.81492 9.9084C5.94512 10.5631 6.26652 11.1645 6.73852 11.6365C7.21052 12.1085 7.81192 12.4299 8.46662 12.5602C9.12132 12.6904 9.79992 12.6235 10.4166 12.3681C11.0333 12.1127 11.5604 11.6801 11.9312 11.1251C12.3021 10.57 12.5 9.9175 12.5 9.25C12.5 8.3549 12.1444 7.49645 11.5115 6.86352C10.8786 6.23058 10.0201 5.875 9.12502 5.875Z" fill="#A5FFED"/>
<path d="M40.625 11.5C39.5125 11.5 38.4249 11.1701 37.4999 10.552C36.5749 9.9339 35.8539 9.0554 35.4282 8.0276C35.0024 6.99976 34.891 5.86876 35.1081 4.77762C35.3251 3.68648 35.8609 2.6842 36.6475 1.89753C37.4342 1.11086 38.4365 0.57513 39.5276 0.35809C40.6188 0.14104 41.7498 0.25244 42.7776 0.67818C43.8054 1.10392 44.6839 1.82489 45.302 2.74992C45.9201 3.67495 46.25 4.76248 46.25 5.875C46.2482 7.3663 45.655 8.796 44.6005 9.8505C43.546 10.905 42.1163 11.4982 40.625 11.5ZM40.625 2.5C39.9575 2.5 39.305 2.69794 38.75 3.06879C38.1949 3.43964 37.7624 3.96675 37.5069 4.58345C37.2515 5.20015 37.1846 5.87875 37.3149 6.53343C37.4451 7.18812 37.7665 7.78949 38.2385 8.2615C38.7105 8.7335 39.3119 9.0549 39.9666 9.1852C40.6213 9.3154 41.2999 9.2485 41.9166 8.9931C42.5333 8.7377 43.0604 8.3051 43.4312 7.75005C43.8021 7.19504 44 6.54252 44 5.875C44 4.9799 43.6444 4.12145 43.0115 3.48852C42.3786 2.85558 41.5201 2.5 40.625 2.5Z" fill="#A5FFED"/>
</svg>
