<svg width="26" height="24" viewBox="0 0 26 24" fill="none" xmlns="http://www.w3.org/2000/svg">
<path d="M8.48078 19.9986L9.05278 19.8825C9.21298 19.8503 9.35708 19.7638 9.46068 19.6374C9.56418 19.511 9.62078 19.3527 9.62078 19.1893C9.62078 19.0259 9.56418 18.8676 9.46068 18.7412C9.35708 18.6149 9.21298 18.5283 9.05278 18.4962L8.48078 18.38C7.77557 18.2369 7.12811 17.8893 6.61926 17.3804C6.11041 16.8716 5.76274 16.2241 5.61967 15.5189L5.50353 14.9469C5.47142 14.7867 5.38483 14.6426 5.25846 14.539C5.1321 14.4355 4.97376 14.3789 4.81039 14.3789C4.64701 14.3789 4.48868 14.4355 4.36231 14.539C4.23595 14.6426 4.14933 14.7867 4.11722 14.9469L4.00109 15.5189C3.85801 16.2241 3.51034 16.8716 3.0015 17.3804C2.49265 17.8893 1.84518 18.2369 1.13993 18.38L0.56799 18.4962C0.4078 18.5283 0.26367 18.6149 0.16012 18.7412C0.05657 18.8676 0 19.0259 0 19.1893C0 19.3527 0.05657 19.511 0.16012 19.6374C0.26367 19.7638 0.4078 19.8503 0.56799 19.8825L1.13993 19.9986C1.84518 20.1417 2.49265 20.4894 3.0015 20.9982C3.51034 21.5071 3.85801 22.1545 4.00109 22.8597L4.11722 23.4317C4.14933 23.5919 4.23595 23.736 4.36231 23.8396C4.48868 23.9431 4.64701 23.9997 4.81039 23.9997C4.97376 23.9997 5.1321 23.9431 5.25846 23.8396C5.38483 23.736 5.47142 23.5919 5.50353 23.4317L5.61967 22.8597C5.76274 22.1545 6.11041 21.5071 6.61926 20.9982C7.12811 20.4894 7.77557 20.1417 8.48078 19.9986Z" fill="#A5FFED"/>
<path d="M22.3458 9.64195L24.4508 9.21515C24.6609 9.17215 24.8495 9.05795 24.9851 8.89185C25.1207 8.72575 25.1947 8.51795 25.1947 8.30355C25.1947 8.08905 25.1207 7.88125 24.9851 7.71515C24.8495 7.54905 24.6609 7.43486 24.4508 7.3919L22.3458 6.96511C21.3318 6.75933 20.401 6.25942 19.6693 5.52779C18.9377 4.79615 18.4377 3.86521 18.232 2.85119L17.8052 0.74632C17.763 0.53583 17.6491 0.34646 17.483 0.2104C17.3169 0.0743401 17.109 0 16.8943 0C16.6796 0 16.4716 0.0743401 16.3055 0.2104C16.1395 0.34646 16.0256 0.53583 15.9834 0.74632L15.5566 2.85119C15.351 3.86529 14.8511 4.79632 14.1194 5.52799C13.3878 6.25965 12.4567 6.75951 11.4426 6.96511L9.33775 7.3919C9.12775 7.43486 8.93895 7.54905 8.80335 7.71515C8.66775 7.88125 8.59375 8.08905 8.59375 8.30355C8.59375 8.51795 8.66775 8.72575 8.80335 8.89185C8.93895 9.05795 9.12775 9.17215 9.33775 9.21515L11.4426 9.64195C12.4567 9.84755 13.3878 10.3474 14.1194 11.0791C14.8511 11.8108 15.351 12.7417 15.5566 13.7558L15.9834 15.8608C16.0256 16.0713 16.1395 16.2606 16.3055 16.3967C16.4716 16.5327 16.6796 16.607 16.8943 16.607C17.109 16.607 17.3169 16.5327 17.483 16.3967C17.6491 16.2606 17.763 16.0713 17.8052 15.8608L18.232 13.7558C18.4377 12.7418 18.9377 11.8109 19.6693 11.0793C20.401 10.3477 21.3318 9.84765 22.3458 9.64195Z" fill="#A5FFED"/>
</svg>
