<svg width="68" height="68" viewBox="0 0 68 68" fill="none" xmlns="http://www.w3.org/2000/svg">
<path d="M34 39.625C32.8875 39.625 31.7999 39.2951 30.8749 38.677C29.9499 38.0589 29.2289 37.1804 28.8032 36.1526C28.3774 35.1248 28.266 33.9938 28.4831 32.9026C28.7001 31.8115 29.2359 30.8092 30.0225 30.0225C30.8092 29.2359 31.8115 28.7001 32.9026 28.4831C33.9938 28.266 35.1248 28.3774 36.1526 28.8032C37.1804 29.2289 38.0589 29.9499 38.677 30.8749C39.2951 31.7999 39.625 32.8875 39.625 34C39.6232 35.4913 39.03 36.921 37.9755 37.9755C36.921 39.03 35.4913 39.6232 34 39.625ZM34 30.625C33.3325 30.625 32.68 30.8229 32.125 31.1938C31.5699 31.5646 31.1374 32.0917 30.8819 32.7084C30.6265 33.3251 30.5596 34.0037 30.6899 34.6584C30.8201 35.3131 31.1415 35.9145 31.6135 36.3865C32.0855 36.8585 32.6869 37.1799 33.3416 37.3102C33.9963 37.4404 34.6749 37.3735 35.2916 37.1181C35.9083 36.8626 36.4354 36.4301 36.8062 35.8751C37.1771 35.32 37.375 34.6675 37.375 34C37.375 33.1049 37.0194 32.2465 36.3865 31.6135C35.7536 30.9806 34.8951 30.625 34 30.625Z" fill="#A5FFED"/>
<path d="M62.125 39.625C61.0125 39.625 59.9249 39.2951 58.9999 38.677C58.0749 38.0589 57.3539 37.1804 56.9282 36.1526C56.5024 35.1248 56.391 33.9938 56.6081 32.9026C56.8251 31.8115 57.3609 30.8092 58.1475 30.0225C58.9342 29.2359 59.9365 28.7001 61.0276 28.4831C62.1188 28.266 63.2498 28.3774 64.2776 28.8032C65.3054 29.2289 66.1839 29.9499 66.802 30.8749C67.4201 31.7999 67.75 32.8875 67.75 34C67.7482 35.4913 67.155 36.921 66.1005 37.9755C65.046 39.03 63.6163 39.6232 62.125 39.625ZM62.125 30.625C61.4575 30.625 60.805 30.8229 60.25 31.1938C59.6949 31.5646 59.2624 32.0917 59.0069 32.7084C58.7515 33.3251 58.6846 34.0037 58.8149 34.6584C58.9451 35.3131 59.2665 35.9145 59.7385 36.3865C60.2105 36.8585 60.8119 37.1799 61.4666 37.3102C62.1213 37.4404 62.7999 37.3735 63.4166 37.1181C64.0333 36.8626 64.5604 36.4301 64.9312 35.8751C65.3021 35.32 65.5 34.6675 65.5 34C65.5 33.1049 65.1444 32.2465 64.5115 31.6135C63.8786 30.9806 63.0201 30.625 62.125 30.625Z" fill="#A5FFED"/>
<path d="M54.25 35.125H41.875C41.5766 35.125 41.2905 35.0065 41.0795 34.7955C40.8685 34.5845 40.75 34.2984 40.75 34C40.75 33.7016 40.8685 33.4155 41.0795 33.2045C41.2905 32.9935 41.5766 32.875 41.875 32.875H54.25C54.5484 32.875 54.8345 32.9935 55.0455 33.2045C55.2565 33.4155 55.375 33.7016 55.375 34C55.375 34.2984 55.2565 34.5845 55.0455 34.7955C54.8345 35.0065 54.5484 35.125 54.25 35.125Z" fill="#A5FFED"/>
<path d="M53.8879 19.7373C52.9628 19.7375 52.0519 19.5095 51.2359 19.0736C50.42 18.6376 49.7242 18.0071 49.2101 17.238C48.696 16.4688 48.3796 15.5847 48.2888 14.6641C48.1981 13.7434 48.3358 12.8146 48.6898 11.9599C49.0438 11.1052 49.6032 10.351 50.3183 9.76411C51.0335 9.17721 51.8823 8.77581 52.7897 8.59531C53.697 8.41491 54.6349 8.46101 55.5201 8.72971C56.4054 8.99831 57.2107 9.48121 57.8648 10.1354C58.6512 10.9221 59.1868 11.9243 59.4037 13.0153C59.6206 14.1062 59.5093 15.2371 59.0836 16.2647C58.658 17.2924 57.9372 18.1708 57.0124 18.7889C56.0876 19.407 55.0003 19.7371 53.8879 19.7373ZM53.8879 10.7373C53.2203 10.7372 52.5676 10.9352 52.0125 11.3061C51.4574 11.677 51.0247 12.2042 50.7693 12.8211C50.5139 13.4379 50.4471 14.1166 50.5775 14.7714C50.7079 15.4262 51.0296 16.0276 51.5018 16.4996C52.1447 17.1131 52.9992 17.4555 53.8879 17.4555C54.7766 17.4555 55.6312 17.1131 56.274 16.4996C56.5875 16.1861 56.8362 15.8141 57.0058 15.4046C57.1754 14.995 57.2628 14.5561 57.2628 14.1129C57.2628 13.6696 57.1754 13.2307 57.0058 12.8212C56.8362 12.4117 56.5875 12.0396 56.274 11.7262C55.9615 11.4118 55.5896 11.1625 55.18 10.9927C54.7705 10.823 54.3313 10.7362 53.8879 10.7373Z" fill="#A5FFED"/>
<path d="M39.5681 29.556C39.3456 29.556 39.1282 29.49 38.9432 29.3663C38.7583 29.2427 38.6141 29.067 38.529 28.8615C38.4438 28.656 38.4216 28.4298 38.465 28.2116C38.5083 27.9934 38.6154 27.793 38.7727 27.6356L47.523 18.8854C47.6268 18.7779 47.7509 18.6922 47.8882 18.6333C48.0254 18.5743 48.173 18.5433 48.3224 18.542C48.4718 18.5407 48.6199 18.5691 48.7582 18.6257C48.8964 18.6823 49.022 18.7658 49.1277 18.8714C49.2333 18.9771 49.3168 19.1027 49.3734 19.2409C49.43 19.3792 49.4584 19.5273 49.4571 19.6767C49.4558 19.8261 49.4248 19.9737 49.3658 20.111C49.3069 20.2482 49.2212 20.3724 49.1137 20.4761L40.3635 29.2264C40.2593 29.3312 40.1354 29.4143 39.9988 29.4709C39.8623 29.5275 39.7159 29.5564 39.5681 29.556Z" fill="#A5FFED"/>
<path d="M34 11.5C32.8875 11.5 31.7999 11.1701 30.8749 10.552C29.9499 9.9339 29.2289 9.0554 28.8032 8.0276C28.3774 6.99976 28.266 5.86876 28.4831 4.77762C28.7001 3.68648 29.2359 2.6842 30.0225 1.89753C30.8092 1.11086 31.8115 0.57513 32.9026 0.35809C33.9938 0.14104 35.1248 0.25244 36.1526 0.67818C37.1804 1.10392 38.0589 1.82489 38.677 2.74992C39.2951 3.67495 39.625 4.76248 39.625 5.875C39.6232 7.3663 39.03 8.796 37.9755 9.8505C36.921 10.905 35.4913 11.4982 34 11.5ZM34 2.5C33.3325 2.5 32.68 2.69794 32.125 3.06879C31.5699 3.43964 31.1374 3.96675 30.8819 4.58345C30.6265 5.20015 30.5596 5.87875 30.6899 6.53343C30.8201 7.18812 31.1415 7.78949 31.6135 8.2615C32.0855 8.7335 32.6869 9.0549 33.3416 9.1852C33.9963 9.3154 34.6749 9.2485 35.2916 8.9931C35.9083 8.7377 36.4354 8.3051 36.8062 7.75005C37.1771 7.19504 37.375 6.54252 37.375 5.875C37.375 4.9799 37.0194 4.12145 36.3865 3.48852C35.7536 2.85558 34.8951 2.5 34 2.5Z" fill="#A5FFED"/>
<path d="M34 27.25C33.7016 27.25 33.4155 27.1315 33.2045 26.9205C32.9935 26.7095 32.875 26.4234 32.875 26.125V13.75C32.875 13.4516 32.9935 13.1655 33.2045 12.9545C33.4155 12.7435 33.7016 12.625 34 12.625C34.2984 12.625 34.5845 12.7435 34.7955 12.9545C35.0065 13.1655 35.125 13.4516 35.125 13.75V26.125C35.125 26.4234 35.0065 26.7095 34.7955 26.9205C34.5845 27.1315 34.2984 27.25 34 27.25Z" fill="#A5FFED"/>
<path d="M14.1121 19.7373C12.9997 19.7371 11.9124 19.407 10.9876 18.7889C10.0628 18.1708 9.34197 17.2924 8.91637 16.2647C8.49077 15.2371 8.37937 14.1062 8.59627 13.0153C8.81317 11.9243 9.34877 10.9221 10.1352 10.1354C10.7893 9.48121 11.5946 8.99831 12.4799 8.72971C13.3651 8.46101 14.303 8.41491 15.2103 8.59531C16.1177 8.77581 16.9665 9.17721 17.6817 9.76411C18.3968 10.351 18.9562 11.1052 19.3102 11.9599C19.6642 12.8146 19.8019 13.7434 19.7112 14.6641C19.6204 15.5847 19.304 16.4688 18.7899 17.238C18.2759 18.0071 17.58 18.6376 16.7641 19.0736C15.9481 19.5095 15.0372 19.7375 14.1121 19.7373ZM14.1121 10.7373C13.6686 10.7359 13.2293 10.8224 12.8195 10.992C12.4097 11.1615 12.0376 11.4107 11.7248 11.7251C11.4114 12.0385 11.1627 12.4105 10.9931 12.8201C10.8234 13.2296 10.7361 13.6685 10.7361 14.1117C10.7361 14.555 10.8234 14.9939 10.9931 15.4034C11.1627 15.8129 11.4114 16.185 11.7248 16.4984C12.3677 17.112 13.2223 17.4544 14.111 17.4544C14.9997 17.4544 15.8542 17.112 16.4971 16.4984C16.9693 16.0265 17.291 15.4251 17.4214 14.7703C17.5518 14.1155 17.485 13.4368 17.2296 12.8199C16.9742 12.2031 16.5415 11.6759 15.9864 11.305C15.4313 10.934 14.7786 10.7361 14.111 10.7362L14.1121 10.7373Z" fill="#A5FFED"/>
<path d="M28.4302 29.556C28.2824 29.5564 28.136 29.5275 27.9994 29.4709C27.8629 29.4143 27.739 29.3312 27.6348 29.2264L18.8845 20.4761C18.7771 20.3724 18.6914 20.2482 18.6324 20.111C18.5735 19.9737 18.5424 19.8261 18.5411 19.6767C18.5398 19.5273 18.5683 19.3792 18.6249 19.2409C18.6814 19.1027 18.765 18.9771 18.8706 18.8714C18.9762 18.7658 19.1018 18.6823 19.2401 18.6257C19.3784 18.5691 19.5265 18.5407 19.6759 18.542C19.8252 18.5433 19.9729 18.5743 20.1101 18.6333C20.2474 18.6922 20.3715 18.7779 20.4753 18.8854L29.2255 27.6356C29.3828 27.793 29.4899 27.9934 29.5333 28.2116C29.5767 28.4298 29.5544 28.656 29.4693 28.8615C29.3842 29.067 29.24 29.2427 29.0551 29.3663C28.8701 29.49 28.6526 29.556 28.4302 29.556Z" fill="#A5FFED"/>
<path d="M5.875 39.625C4.76248 39.625 3.67495 39.2951 2.74992 38.677C1.82489 38.0589 1.10392 37.1804 0.67818 36.1526C0.25244 35.1248 0.14104 33.9938 0.35809 32.9026C0.57513 31.8115 1.11086 30.8092 1.89753 30.0225C2.6842 29.2359 3.68648 28.7001 4.77762 28.4831C5.86876 28.266 6.99976 28.3774 8.0276 28.8032C9.0554 29.2289 9.9339 29.9499 10.552 30.8749C11.1701 31.7999 11.5 32.8875 11.5 34C11.4982 35.4913 10.905 36.921 9.8505 37.9755C8.796 39.03 7.3663 39.6232 5.875 39.625ZM5.875 30.625C5.20749 30.625 4.55497 30.8229 3.99995 31.1938C3.44494 31.5646 3.01236 32.0917 2.75691 32.7084C2.50146 33.3251 2.43463 34.0037 2.56485 34.6584C2.69508 35.3131 3.01652 35.9145 3.48852 36.3865C3.96052 36.8585 4.56189 37.1799 5.21657 37.3102C5.87126 37.4404 6.54986 37.3735 7.16656 37.1181C7.78326 36.8626 8.3104 36.4301 8.6812 35.8751C9.0521 35.32 9.25 34.6675 9.25 34C9.25 33.1049 8.8944 32.2465 8.2615 31.6135C7.62855 30.9806 6.77011 30.625 5.875 30.625Z" fill="#A5FFED"/>
<path d="M26.125 35.125H13.75C13.4516 35.125 13.1655 35.0065 12.9545 34.7955C12.7435 34.5845 12.625 34.2984 12.625 34C12.625 33.7016 12.7435 33.4155 12.9545 33.2045C13.1655 32.9935 13.4516 32.875 13.75 32.875H26.125C26.4234 32.875 26.7095 32.9935 26.9205 33.2045C27.1315 33.4155 27.25 33.7016 27.25 34C27.25 34.2984 27.1315 34.5845 26.9205 34.7955C26.7095 35.0065 26.4234 35.125 26.125 35.125Z" fill="#A5FFED"/>
<path d="M14.1121 59.5127C13.3731 59.5148 12.6411 59.3702 11.9584 59.0873C11.2758 58.8044 10.656 58.3888 10.1352 57.8646C9.2151 56.9442 8.6426 55.7333 8.5153 54.4382C8.3879 53.143 8.7136 51.8438 9.4368 50.7618C10.16 49.6799 11.236 48.8822 12.4814 48.5046C13.7268 48.1271 15.0646 48.193 16.2668 48.6913C17.4691 49.1895 18.4613 50.0892 19.0746 51.237C19.6879 52.3849 19.8841 53.7098 19.63 54.9862C19.3758 56.2625 18.687 57.4112 17.6809 58.2366C16.6747 59.062 15.4135 59.513 14.1121 59.5127ZM14.1121 50.5127C13.4444 50.5124 12.7915 50.7102 12.2362 51.081C11.6809 51.4518 11.2481 51.979 10.9926 52.5959C10.737 53.2128 10.6701 53.8917 10.8005 54.5465C10.9308 55.2014 11.2525 55.8029 11.7248 56.2749C12.3675 56.889 13.2221 57.2317 14.111 57.2317C14.9998 57.2317 15.8545 56.889 16.4971 56.2749C16.9689 55.8029 17.2903 55.2016 17.4204 54.5471C17.5506 53.8925 17.4838 53.214 17.2284 52.5974C16.973 51.9808 16.5405 51.4537 15.9856 51.0828C15.4308 50.712 14.7784 50.514 14.111 50.5138L14.1121 50.5127Z" fill="#A5FFED"/>
<path d="M19.6814 49.4444C19.4589 49.4444 19.2415 49.3784 19.0565 49.2548C18.8716 49.1312 18.7274 48.9555 18.6423 48.7499C18.5571 48.5444 18.5349 48.3182 18.5783 48.1C18.6216 47.8818 18.7288 47.6814 18.886 47.5241L27.6363 38.7738C27.8485 38.5689 28.1326 38.4555 28.4276 38.4581C28.7226 38.4606 29.0047 38.5789 29.2133 38.7875C29.4219 38.9961 29.5402 39.2783 29.5428 39.5732C29.5454 39.8682 29.432 40.1524 29.227 40.3646L20.4768 49.1148C20.2659 49.3258 19.9798 49.4444 19.6814 49.4444Z" fill="#A5FFED"/>
<path d="M34 67.75C32.8875 67.75 31.7999 67.4201 30.8749 66.802C29.9499 66.1839 29.2289 65.3054 28.8032 64.2776C28.3774 63.2498 28.266 62.1188 28.4831 61.0276C28.7001 59.9365 29.2359 58.9342 30.0225 58.1475C30.8092 57.3609 31.8115 56.8251 32.9026 56.6081C33.9938 56.391 35.1248 56.5024 36.1526 56.9282C37.1804 57.3539 38.0589 58.0749 38.677 58.9999C39.2951 59.9249 39.625 61.0125 39.625 62.125C39.6232 63.6163 39.03 65.046 37.9755 66.1005C36.921 67.155 35.4913 67.7482 34 67.75ZM34 58.75C33.3325 58.75 32.68 58.9479 32.125 59.3188C31.5699 59.6896 31.1374 60.2167 30.8819 60.8334C30.6265 61.4501 30.5596 62.1287 30.6899 62.7834C30.8201 63.4381 31.1415 64.0395 31.6135 64.5115C32.0855 64.9835 32.6869 65.3049 33.3416 65.4352C33.9963 65.5654 34.6749 65.4985 35.2916 65.2431C35.9083 64.9876 36.4354 64.5551 36.8062 64.0001C37.1771 63.445 37.375 62.7925 37.375 62.125C37.375 61.2299 37.0194 60.3715 36.3865 59.7385C35.7536 59.1056 34.8951 58.75 34 58.75Z" fill="#A5FFED"/>
<path d="M34 55.375C33.7016 55.375 33.4155 55.2565 33.2045 55.0455C32.9935 54.8345 32.875 54.5484 32.875 54.25V41.875C32.875 41.5766 32.9935 41.2905 33.2045 41.0795C33.4155 40.8685 33.7016 40.75 34 40.75C34.2984 40.75 34.5845 40.8685 34.7955 41.0795C35.0065 41.2905 35.125 41.5766 35.125 41.875V54.25C35.125 54.5484 35.0065 54.8345 34.7955 55.0455C34.5845 55.2565 34.2984 55.375 34 55.375Z" fill="#A5FFED"/>
<path d="M53.8879 59.5127C52.5865 59.513 51.3253 59.062 50.3192 58.2366C49.313 57.4112 48.6242 56.2625 48.37 54.9862C48.1159 53.7098 48.3122 52.3849 48.9254 51.237C49.5387 50.0892 50.531 49.1895 51.7332 48.6913C52.9354 48.193 54.2732 48.1271 55.5186 48.5046C56.7641 48.8822 57.84 49.6799 58.5632 50.7618C59.2864 51.8438 59.6121 53.143 59.4847 54.4382C59.3574 55.7333 58.7849 56.9442 57.8648 57.8646C57.344 58.3888 56.7243 58.8044 56.0416 59.0873C55.3589 59.3702 54.6269 59.5148 53.8879 59.5127ZM53.8879 50.5127C53.2203 50.5126 52.5676 50.7106 52.0125 51.0815C51.4574 51.4524 51.0247 51.9796 50.7693 52.5965C50.5139 53.2133 50.4471 53.892 50.5775 54.5468C50.7079 55.2016 51.0296 55.803 51.5018 56.2749C52.1444 56.889 52.9991 57.2317 53.8879 57.2317C54.7768 57.2317 55.6314 56.889 56.2741 56.2749C56.7459 55.8029 57.0672 55.2016 57.1974 54.5471C57.3276 53.8925 57.2607 53.214 57.0053 52.5974C56.75 51.9808 56.3175 51.4537 55.7626 51.0828C55.2077 50.712 54.5553 50.5128 53.8879 50.5127Z" fill="#A5FFED"/>
<path d="M48.3184 49.4444C48.0201 49.4444 47.734 49.3258 47.5231 49.1148L38.7728 40.3646C38.5679 40.1524 38.4545 39.8682 38.4571 39.5732C38.4596 39.2783 38.5779 38.9961 38.7865 38.7875C38.9951 38.5789 39.2773 38.4606 39.5722 38.4581C39.8672 38.4555 40.1514 38.5689 40.3636 38.7738L49.1138 47.5241C49.2711 47.6814 49.3782 47.8818 49.4216 48.1C49.465 48.3182 49.4427 48.5444 49.3576 48.7499C49.2725 48.9555 49.1283 49.1312 48.9433 49.2548C48.7584 49.3784 48.5409 49.4444 48.3184 49.4444Z" fill="#A5FFED"/>
</svg>
