<svg xmlns="http://www.w3.org/2000/svg" width="29" height="30" viewBox="0 0 29 30" fill="none"><path d="M18.3333 29.5833C17.9786 29.5833 17.6816 29.4636 17.4423 29.2243C17.203 28.985 17.0833 28.688 17.0833 28.3333C17.0833 27.9786 17.203 27.6816 17.4423 27.4423C17.6816 27.203 17.9786 27.0833 18.3333 27.0833C19.7777 27.0833 21.0416 26.7943 22.125 26.2163C23.2083 25.6383 23.75 24.9551 23.75 24.1666C23.75 23.6175 23.4893 23.1175 22.9679 22.6666C22.4465 22.2157 21.7168 21.8354 20.7788 21.5255L22.6601 19.6602C23.7948 20.1559 24.6767 20.7809 25.306 21.5352C25.9353 22.2895 26.2499 23.1666 26.2499 24.1666C26.2499 25.8717 25.4177 27.2008 23.7531 28.1538C22.0886 29.1068 20.282 29.5833 18.3333 29.5833ZM3.5545 17.1698C2.54595 16.7083 1.77084 16.1597 1.22917 15.524C0.687505 14.8883 0.416672 14.1581 0.416672 13.3333C0.416672 12.2842 0.825852 11.3878 1.64421 10.6442C2.4626 9.90063 3.9455 9.05876 6.09292 8.11859C7.87498 7.31303 9.04112 6.71313 9.59134 6.31888C10.1416 5.92466 10.4167 5.48502 10.4167 4.99996C10.4167 4.43799 10.0978 3.95027 9.45992 3.5368C8.82209 3.12332 7.89099 2.91659 6.66663 2.91659C5.92944 2.91659 5.28734 3.01595 4.74034 3.21467C4.19331 3.41339 3.70932 3.72323 3.28838 4.14417C3.05763 4.37495 2.7788 4.5101 2.45188 4.54963C2.12496 4.58916 1.82369 4.49888 1.54805 4.2788C1.27241 4.06513 1.11482 3.79216 1.0753 3.45988C1.03577 3.12763 1.13139 2.82369 1.36217 2.54805C1.83653 1.95191 2.55341 1.44764 3.5128 1.03525C4.47219 0.622866 5.52346 0.416672 6.66663 0.416672C8.52774 0.416672 10.0347 0.838672 11.1874 1.68267C12.3402 2.5267 12.9166 3.63246 12.9166 4.99996C12.9166 6.00849 12.5245 6.91394 11.7403 7.7163C10.9561 8.51863 9.40594 9.41553 7.08971 10.407C5.42516 11.1228 4.31351 11.6848 3.75476 12.0929C3.19598 12.501 2.91659 12.9145 2.91659 13.3333C2.91659 13.6901 3.13241 14.0347 3.56405 14.367C3.99569 14.6992 4.62284 15.0085 5.4455 15.2949L3.5545 17.1698ZM25.8878 11.2595L20.1988 5.57051L21.8045 3.96476C22.3536 3.41562 22.9973 3.13837 23.7355 3.133C24.4738 3.12767 25.1089 3.39957 25.641 3.94871L27.5095 5.81726C28.0587 6.34931 28.3306 6.98445 28.3252 7.72267C28.3199 8.46092 28.0426 9.10462 27.4935 9.65376L25.8878 11.2595ZM4.85571 26.6025H6.98071L19.75 13.8333L17.625 11.7083L4.85571 24.4775V26.6025ZM2.3558 29.1025V23.4135L17.625 8.14426L23.314 13.8333L8.0448 29.1025H2.3558Z" fill="#6F36EA"></path></svg>