<svg width="68" height="61" viewBox="0 0 68 61" fill="none" xmlns="http://www.w3.org/2000/svg">
<path d="M33.7507 46.1247C27.404 46.2059 21.1163 44.8998 15.3269 42.2979C9.53759 39.696 4.38643 35.8609 0.23355 31.0609C0.0821198 30.8642 0 30.623 0 30.3747C0 30.1264 0.0821198 29.8852 0.23355 29.6884C4.38643 24.8884 9.53759 21.0534 15.3269 18.4515C21.1163 15.8496 27.404 14.5435 33.7507 14.6247C40.0973 14.5435 46.3851 15.8496 52.1744 18.4515C57.9638 21.0534 63.1149 24.8884 67.2678 29.6884C67.4192 29.8852 67.5014 30.1264 67.5014 30.3747C67.5014 30.623 67.4192 30.8642 67.2678 31.0609C63.1149 35.8609 57.9638 39.696 52.1744 42.2979C46.3851 44.8998 40.0973 46.2059 33.7507 46.1247ZM2.60167 30.3747C6.58348 34.6495 11.4058 38.0553 16.766 40.3785C22.1262 42.7016 27.9087 43.8919 33.7507 43.8747C39.5936 43.8983 45.3781 42.711 50.7393 40.3874C56.1004 38.0639 60.9219 34.6547 64.8997 30.3747C60.9071 26.1136 56.0827 22.717 50.725 20.395C45.3672 18.0729 39.59 16.8748 33.7507 16.8748C27.9114 16.8748 22.1342 18.0729 16.7764 20.395C11.4186 22.717 6.59424 26.1136 2.60167 30.3747Z" fill="#A5FFED"/>
<path d="M33.75 46.125C30.635 46.125 27.5898 45.2013 24.9998 43.4707C22.4097 41.74 20.391 39.2802 19.1989 36.4023C18.0068 33.5243 17.6949 30.3575 18.3026 27.3023C18.9104 24.2471 20.4104 21.4408 22.6131 19.2381C24.8158 17.0354 27.6221 15.5354 30.6773 14.9276C33.7325 14.3199 36.8993 14.6318 39.7773 15.8239C42.6552 17.016 45.115 19.0347 46.8457 21.6248C48.5763 24.2148 49.5 27.26 49.5 30.375C49.4955 34.5508 47.8347 38.5543 44.882 41.507C41.9293 44.4597 37.9258 46.1205 33.75 46.125ZM33.75 16.875C31.08 16.875 28.4699 17.6668 26.2498 19.1502C24.0297 20.6336 22.2994 22.742 21.2776 25.2088C20.2559 27.6756 19.9885 30.39 20.5094 33.0087C21.0303 35.6275 22.3161 38.0329 24.2041 39.9209C26.0921 41.809 28.4975 43.0947 31.1163 43.6156C33.735 44.1365 36.4494 43.8692 38.9162 42.8474C41.383 41.8256 43.4914 40.0953 44.9748 37.8752C46.4582 35.6551 47.25 33.0451 47.25 30.375C47.2461 26.7958 45.8226 23.3642 43.2917 20.8333C40.7608 18.3024 37.3292 16.8789 33.75 16.875Z" fill="#A5FFED"/>
<path d="M33.75 6.75C33.4516 6.75 33.1655 6.6315 32.9545 6.4205C32.7435 6.2095 32.625 5.9234 32.625 5.625V1.125C32.625 0.82663 32.7435 0.54048 32.9545 0.32951C33.1655 0.11853 33.4516 0 33.75 0C34.0484 0 34.3345 0.11853 34.5455 0.32951C34.7565 0.54048 34.875 0.82663 34.875 1.125V5.625C34.875 5.9234 34.7565 6.2095 34.5455 6.4205C34.3345 6.6315 34.0484 6.75 33.75 6.75Z" fill="#A5FFED"/>
<path d="M21.3743 10.0653C21.1767 10.0655 20.9824 10.0136 20.8112 9.9149C20.64 9.8161 20.4978 9.674 20.399 9.5028L18.149 5.6058C18.0021 5.3476 17.9634 5.0417 18.0412 4.755C18.1191 4.4683 18.3072 4.22408 18.5644 4.07554C18.8217 3.927 19.1273 3.88624 19.4145 3.96218C19.7017 4.03811 19.9472 4.22456 20.0975 4.4808L22.3475 8.3778C22.4462 8.5488 22.4981 8.7427 22.4982 8.9401C22.4982 9.1374 22.4464 9.3314 22.3478 9.5023C22.2492 9.6733 22.1073 9.8154 21.9364 9.9142C21.7656 10.013 21.5717 10.0651 21.3743 10.0653Z" fill="#A5FFED"/>
<path d="M19.1258 56.8319C18.9284 56.8317 18.7346 56.7796 18.5637 56.6807C18.3929 56.5819 18.251 56.4399 18.1524 56.2689C18.0538 56.0979 18.0019 55.904 18.002 55.7066C18.002 55.5092 18.054 55.3153 18.1527 55.1444L20.4027 51.2474C20.5529 50.9911 20.7985 50.8047 21.0857 50.7287C21.3729 50.6528 21.6785 50.6936 21.9357 50.8421C22.193 50.9906 22.3811 51.2349 22.4589 51.5216C22.5368 51.8083 22.498 52.1142 22.3512 52.3724L20.1012 56.2694C20.0024 56.4406 19.8602 56.5827 19.6889 56.6815C19.5177 56.7802 19.3235 56.8321 19.1258 56.8319Z" fill="#A5FFED"/>
<path d="M33.75 60.75C33.4516 60.75 33.1655 60.6315 32.9545 60.4205C32.7435 60.2095 32.625 59.9234 32.625 59.625V55.125C32.625 54.8266 32.7435 54.5405 32.9545 54.3295C33.1655 54.1185 33.4516 54 33.75 54C34.0484 54 34.3345 54.1185 34.5455 54.3295C34.7565 54.5405 34.875 54.8266 34.875 55.125V59.625C34.875 59.9234 34.7565 60.2095 34.5455 60.4205C34.3345 60.6315 34.0484 60.75 33.75 60.75Z" fill="#A5FFED"/>
<path d="M48.376 56.8322C48.1783 56.8324 47.9841 56.7805 47.8129 56.6817C47.6416 56.583 47.4994 56.4409 47.4006 56.2697L45.1506 52.3727C45.0756 52.2447 45.0266 52.1031 45.0065 51.9561C44.9864 51.8091 44.9956 51.6596 45.0335 51.5162C45.0714 51.3727 45.1373 51.2382 45.2275 51.1204C45.3176 51.0025 45.4301 50.9036 45.5586 50.8295C45.6871 50.7553 45.829 50.7072 45.9761 50.6881C46.1232 50.669 46.2727 50.6792 46.4159 50.718C46.5591 50.7569 46.6931 50.8237 46.8104 50.9146C46.9277 51.0055 47.0258 51.1187 47.0991 51.2477L49.3491 55.1447C49.4478 55.3156 49.4998 55.5095 49.4998 55.7069C49.4999 55.9043 49.448 56.0982 49.3494 56.2692C49.2508 56.4402 49.1089 56.5822 48.9381 56.681C48.7672 56.7799 48.5734 56.832 48.376 56.8322Z" fill="#A5FFED"/>
<path d="M46.1258 10.0653C45.9284 10.0651 45.7346 10.013 45.5637 9.9142C45.3929 9.8154 45.251 9.6733 45.1524 9.5023C45.0538 9.3314 45.0019 9.1374 45.002 8.9401C45.002 8.7427 45.054 8.5488 45.1527 8.3778L47.4027 4.4808C47.5529 4.22456 47.7985 4.03811 48.0857 3.96218C48.3729 3.88624 48.6785 3.927 48.9357 4.07554C49.193 4.22408 49.3811 4.4683 49.4589 4.755C49.5368 5.0417 49.498 5.3476 49.3512 5.6058L47.1012 9.5028C47.0024 9.674 46.8602 9.8161 46.6889 9.9149C46.5177 10.0136 46.3235 10.0655 46.1258 10.0653Z" fill="#A5FFED"/>
<path d="M35.9998 32.6248C35.7773 32.6247 35.5598 32.5587 35.3749 32.4351C35.1899 32.3115 35.0458 32.1358 34.9606 31.9303C34.8755 31.7247 34.8532 31.4986 34.8966 31.2804C34.94 31.0622 35.0471 30.8617 35.2044 30.7044L40.8294 25.0794C41.0416 24.8745 41.3257 24.7611 41.6207 24.7637C41.9157 24.7662 42.1978 24.8845 42.4064 25.0931C42.615 25.3017 42.7333 25.5839 42.7359 25.8788C42.7385 26.1738 42.6251 26.458 42.4201 26.6702L36.7951 32.2952C36.5842 32.5062 36.2981 32.6247 35.9998 32.6248Z" fill="#A5FFED"/>
<path d="M35.9998 32.6248C35.7015 32.6247 35.4154 32.5062 35.2045 32.2952L31.8295 28.9202C31.6245 28.708 31.5112 28.4238 31.5137 28.1288C31.5163 27.8339 31.6346 27.5517 31.8432 27.3431C32.0518 27.1345 32.3339 27.0162 32.6289 27.0137C32.9239 27.0111 33.208 27.1245 33.4202 27.3294L36.7952 30.7044C36.9525 30.8617 37.0596 31.0622 37.103 31.2804C37.1464 31.4986 37.1241 31.7247 37.039 31.9303C36.9539 32.1358 36.8097 32.3115 36.6247 32.4351C36.4398 32.5587 36.2223 32.6247 35.9998 32.6248Z" fill="#A5FFED"/>
<path d="M25.8748 35.9998C25.6523 35.9997 25.4348 35.9337 25.2499 35.8101C25.0649 35.6865 24.9208 35.5108 24.8356 35.3053C24.7505 35.0997 24.7282 34.8736 24.7716 34.6554C24.815 34.4372 24.9221 34.2368 25.0794 34.0794L31.8294 27.3294C32.0416 27.1245 32.3257 27.0111 32.6207 27.0137C32.9157 27.0162 33.1978 27.1345 33.4064 27.3431C33.615 27.5517 33.7333 27.8339 33.7359 28.1288C33.7385 28.4238 33.6251 28.708 33.4201 28.9202L26.6701 35.6702C26.4592 35.8812 26.1731 35.9997 25.8748 35.9998Z" fill="#A5FFED"/>
<path d="M41.625 30.375C41.3266 30.375 41.0405 30.2565 40.8295 30.0455C40.6185 29.8345 40.5 29.5484 40.5 29.25V25.875C40.5 25.5766 40.6185 25.2905 40.8295 25.0795C41.0405 24.8685 41.3266 24.75 41.625 24.75C41.9234 24.75 42.2095 24.8685 42.4205 25.0795C42.6315 25.2905 42.75 25.5766 42.75 25.875V29.25C42.75 29.5484 42.6315 29.8345 42.4205 30.0455C42.2095 30.2565 41.9234 30.375 41.625 30.375Z" fill="#A5FFED"/>
<path d="M41.625 27H38.25C37.9516 27 37.6655 26.8815 37.4545 26.6705C37.2435 26.4595 37.125 26.1734 37.125 25.875C37.125 25.5766 37.2435 25.2905 37.4545 25.0795C37.6655 24.8685 37.9516 24.75 38.25 24.75H41.625C41.9234 24.75 42.2095 24.8685 42.4205 25.0795C42.6315 25.2905 42.75 25.5766 42.75 25.875C42.75 26.1734 42.6315 26.4595 42.4205 26.6705C42.2095 26.8815 41.9234 27 41.625 27Z" fill="#A5FFED"/>
</svg>
